# 3ds Max Wavefront OBJ Exporter v0.97b - (c)2007 guruware
# File Created: 07.05.2018 00:07:44

mtllib Cylinder.mtl

#
# object Cylinder001
#

v  0.0000 -0.5000 0.0001
v  0.4619 -0.5000 -0.1912
v  0.5000 -0.5000 0.0001
v  0.3536 -0.5000 -0.3534
v  0.1913 -0.5000 -0.4618
v  -0.0000 -0.5000 -0.4999
v  -0.1913 -0.5000 -0.4618
v  -0.3536 -0.5000 -0.3534
v  -0.4619 -0.5000 -0.1912
v  -0.5000 -0.5000 0.0001
v  -0.4619 -0.5000 0.1914
v  -0.3536 -0.5000 0.3537
v  -0.1913 -0.5000 0.4620
v  0.0000 -0.5000 0.5001
v  0.1913 -0.5000 0.4620
v  0.3536 -0.5000 0.3537
v  0.4619 -0.5000 0.1914
v  0.4619 0.5000 -0.1912
v  0.5000 0.5000 0.0001
v  0.3536 0.5000 -0.3534
v  0.1913 0.5000 -0.4618
v  -0.0000 0.5000 -0.4999
v  -0.1913 0.5000 -0.4618
v  -0.3536 0.5000 -0.3534
v  -0.4619 0.5000 -0.1912
v  -0.5000 0.5000 0.0001
v  -0.4619 0.5000 0.1914
v  -0.3536 0.5000 0.3537
v  -0.1913 0.5000 0.4620
v  0.0000 0.5000 0.5001
v  0.1913 0.5000 0.4620
v  0.3536 0.5000 0.3537
v  0.4619 0.5000 0.1914
v  0.0000 0.5000 0.0001
# 34 vertices

vn 0.0000 -1.0000 -0.0000
vn 1.0000 0.0000 -0.0000
vn 0.9239 0.0000 -0.3827
vn 0.7071 0.0000 -0.7071
vn 0.3827 0.0000 -0.9239
vn -0.0000 0.0000 -1.0000
vn 0.0000 0.0000 -1.0000
vn -0.3827 0.0000 -0.9239
vn -0.7071 0.0000 -0.7071
vn -0.9239 0.0000 -0.3827
vn -1.0000 0.0000 -0.0000
vn -0.9239 0.0000 0.3827
vn -0.7071 0.0000 0.7071
vn -0.3827 0.0000 0.9239
vn 0.0000 0.0000 1.0000
vn 0.3827 0.0000 0.9239
vn 0.7071 0.0000 0.7071
vn 0.9239 0.0000 0.3827
vn 0.0000 1.0000 -0.0000
# 19 vertex normals

vt 0.5000 0.0000 0.0000
vt 0.8125 0.0000 1.0000
vt 0.7500 0.0000 1.0000
vt 0.8750 0.0000 1.0000
vt 0.9375 0.0000 1.0000
vt 0.0000 0.0000 1.0000
vt -0.0625 0.0000 1.0000
vt 0.0625 0.0000 1.0000
vt 0.1250 0.0000 1.0000
vt 0.1875 0.0000 1.0000
vt 0.2500 0.0000 1.0000
vt 0.3125 0.0000 1.0000
vt 0.3750 0.0000 1.0000
vt 0.4375 0.0000 1.0000
vt 0.5000 0.0000 1.0000
vt 0.5625 0.0000 1.0000
vt 0.6250 0.0000 1.0000
vt 0.6875 0.0000 1.0000
vt 0.8125 1.0000 1.0000
vt 0.7500 1.0000 1.0000
vt 0.8750 1.0000 1.0000
vt 0.9375 1.0000 1.0000
vt 0.0000 1.0000 1.0000
vt -0.0625 1.0000 1.0000
vt 0.0625 1.0000 1.0000
vt 0.1250 1.0000 1.0000
vt 0.1875 1.0000 1.0000
vt 0.2500 1.0000 1.0000
vt 0.3125 1.0000 1.0000
vt 0.3750 1.0000 1.0000
vt 0.4375 1.0000 1.0000
vt 0.5000 1.0000 1.0000
vt 0.5625 1.0000 1.0000
vt 0.6250 1.0000 1.0000
vt 0.6875 1.0000 1.0000
vt 0.5000 1.0000 0.0000
# 36 texture coords

g Cylinder001
usemtl wire_145028177
s 1
f 1/1/1 2/2/1 3/3/1 
f 1/1/1 4/4/1 2/2/1 
f 1/1/1 5/5/1 4/4/1 
f 1/1/1 6/6/1 5/7/1 
f 1/1/1 7/8/1 6/6/1 
f 1/1/1 8/9/1 7/8/1 
f 1/1/1 9/10/1 8/9/1 
f 1/1/1 10/11/1 9/10/1 
f 1/1/1 11/12/1 10/11/1 
f 1/1/1 12/13/1 11/12/1 
f 1/1/1 13/14/1 12/13/1 
f 1/1/1 14/15/1 13/14/1 
f 1/1/1 15/16/1 14/15/1 
f 1/1/1 16/17/1 15/16/1 
f 1/1/1 17/18/1 16/17/1 
f 1/1/1 3/3/1 17/18/1 
s 8
f 3/3/2 18/19/3 19/20/2 
f 3/3/2 2/2/3 18/19/3 
f 2/2/3 20/21/4 18/19/3 
f 2/2/3 4/4/4 20/21/4 
f 4/4/4 21/22/5 20/21/4 
f 4/4/4 5/5/5 21/22/5 
f 5/7/5 22/23/6 21/24/5 
f 5/7/5 6/6/7 22/23/6 
f 6/6/7 23/25/8 22/23/6 
f 6/6/7 7/8/8 23/25/8 
f 7/8/8 24/26/9 23/25/8 
f 7/8/8 8/9/9 24/26/9 
f 8/9/9 25/27/10 24/26/9 
f 8/9/9 9/10/10 25/27/10 
f 9/10/10 26/28/11 25/27/10 
f 9/10/10 10/11/11 26/28/11 
f 10/11/11 27/29/12 26/28/11 
f 10/11/11 11/12/12 27/29/12 
f 11/12/12 28/30/13 27/29/12 
f 11/12/12 12/13/13 28/30/13 
f 12/13/13 29/31/14 28/30/13 
f 12/13/13 13/14/14 29/31/14 
f 13/14/14 30/32/15 29/31/14 
f 13/14/14 14/15/15 30/32/15 
f 14/15/15 31/33/16 30/32/15 
f 14/15/15 15/16/16 31/33/16 
f 15/16/16 32/34/17 31/33/16 
f 15/16/16 16/17/17 32/34/17 
f 16/17/17 33/35/18 32/34/17 
f 16/17/17 17/18/18 33/35/18 
f 17/18/18 19/20/2 33/35/18 
f 17/18/18 3/3/2 19/20/2 
s 1
f 34/36/19 19/20/19 18/19/19 
f 34/36/19 18/19/19 20/21/19 
f 34/36/19 20/21/19 21/22/19 
f 34/36/19 21/24/19 22/23/19 
f 34/36/19 22/23/19 23/25/19 
f 34/36/19 23/25/19 24/26/19 
f 34/36/19 24/26/19 25/27/19 
f 34/36/19 25/27/19 26/28/19 
f 34/36/19 26/28/19 27/29/19 
f 34/36/19 27/29/19 28/30/19 
f 34/36/19 28/30/19 29/31/19 
f 34/36/19 29/31/19 30/32/19 
f 34/36/19 30/32/19 31/33/19 
f 34/36/19 31/33/19 32/34/19 
f 34/36/19 32/34/19 33/35/19 
f 34/36/19 33/35/19 19/20/19 
# 64 faces

