# 3ds Max Wavefront OBJ Exporter v0.97b - (c)2007 guruware
# File Created: 07.05.2018 03:03:25

mtllib Pyramid.mtl

#
# object Pyramid001
#

v  -0.5000 -0.5000 -0.5000
v  0.5000 -0.5000 -0.5000
v  0.0000 -0.0000 0.5000
v  0.5000 0.5000 -0.5000
v  -0.5000 0.5000 -0.5000
# 5 vertices

vn 0.0000 -1.0000 -0.0000
vn 0.0000 1.0000 -0.0000
vn 1.0000 0.0000 -0.0000
vn 0.0000 0.0000 -1.0000
vn -1.0000 0.0000 -0.0000
# 5 vertex normals

vt 1.0000 1.0000 0.0000
vt 0.0000 1.0000 0.0000
vt 2.0000 2.0000 0.0000
# 3 texture coords

g Pyramid001
usemtl wire_008110135
s 2
f 1/1/1 2/2/1 3/3/1 
s 4
f 3/3/2 4/1/2 5/2/2 
s 16
f 2/3/3 4/1/3 3/3/3 
s 32
f 1/3/4 5/1/4 4/2/4 
f 4/2/4 2/3/4 1/3/4 
s 64
f 5/2/5 1/3/5 3/3/5 
# 6 faces

